# xmcd CD database file
#
# Track frame offsets:
#	150
#	18980
#	40340
#	62750
#	74340
#	106732
#	127437
#	147182
#	167192
#	186910
#	206727
#	230677
#
# Disc length: 3380 seconds
#
# Revision: 0
# Processed by: cddbd v1.4PL0 Copyright (c) Steve Scherf et al.
# Submitted via: CDex 1.51
#
DISCID=b70d320c
DTITLE=Big Four Blues Band - Going To Chicago
DYEAR=1993
DGENRE=Blues
TTITLE0=Long Grey mare
TTITLE1=Today I Started Loving You Again
TTITLE2=Keep Your Hands Off Her
TTITLE3=Tenor Madness
TTITLE4=Highway Woman
TTITLE5=Slipping And Sliding
TTITLE6=Route Sixty Six
TTITLE7=Can't Change My Mind
TTITLE8=I Love Money
TTITLE9=Going To Chicago
TTITLE10=Too Poor To Die
TTITLE11=Working On A Chain Gang
EXTD=YEAR: 1993
EXTT0=
EXTT1=
EXTT2=
EXTT3=
EXTT4=
EXTT5=
EXTT6=
EXTT7=
EXTT8=
EXTT9=
EXTT10=
EXTT11=
PLAYORDER=
